<svg xmlns="http://www.w3.org/2000/svg" width="300" viewBox="0 0 300 52.5" height="52.5" version="1.0"><g fill="#EDDDD4"><g><g><path d="M 14.390625 -17.296875 C 14.941406 -17.296875 15.46875 -17.175781 15.96875 -16.9375 C 16.46875 -16.695312 16.875 -16.238281 17.1875 -15.5625 C 17.507812 -14.894531 17.671875 -13.910156 17.671875 -12.609375 L 17.671875 0 L 15.171875 0 L 15.171875 -12.171875 C 15.171875 -13.234375 15.101562 -14 14.96875 -14.46875 C 14.84375 -14.945312 14.472656 -15.1875 13.859375 -15.1875 C 13.359375 -15.1875 12.859375 -15.023438 12.359375 -14.703125 C 11.859375 -14.390625 11.375 -13.875 10.90625 -13.15625 L 10.90625 0 L 8.375 0 L 8.375 -12.171875 C 8.375 -13.234375 8.3125 -14 8.1875 -14.46875 C 8.0625 -14.945312 7.691406 -15.1875 7.078125 -15.1875 C 6.554688 -15.1875 6.050781 -15.023438 5.5625 -14.703125 C 5.070312 -14.390625 4.59375 -13.875 4.125 -13.15625 L 4.125 0 L 1.625 0 L 1.625 -16.9375 L 3.75 -16.9375 L 3.90625 -14.96875 C 4.363281 -15.625 4.878906 -16.175781 5.453125 -16.625 C 6.035156 -17.070312 6.75 -17.296875 7.59375 -17.296875 C 8.238281 -17.296875 8.84375 -17.140625 9.40625 -16.828125 C 9.976562 -16.523438 10.398438 -15.9375 10.671875 -15.0625 C 11.128906 -15.71875 11.644531 -16.253906 12.21875 -16.671875 C 12.800781 -17.085938 13.523438 -17.296875 14.390625 -17.296875 Z M 14.390625 -17.296875" transform="translate(2.578 37.443)"/></g></g></g><g fill="#EDDDD4"><g><g><path d="M 5.359375 -7.515625 C 5.410156 -6.203125 5.660156 -5.128906 6.109375 -4.296875 C 6.554688 -3.472656 7.148438 -2.863281 7.890625 -2.46875 C 8.640625 -2.070312 9.445312 -1.875 10.3125 -1.875 C 11.175781 -1.875 11.957031 -2.003906 12.65625 -2.265625 C 13.363281 -2.523438 14.085938 -2.90625 14.828125 -3.40625 L 16.109375 -1.625 C 15.304688 -1 14.398438 -0.507812 13.390625 -0.15625 C 12.378906 0.195312 11.34375 0.375 10.28125 0.375 C 8.632812 0.375 7.234375 0.00390625 6.078125 -0.734375 C 4.921875 -1.472656 4.039062 -2.503906 3.4375 -3.828125 C 2.832031 -5.160156 2.53125 -6.695312 2.53125 -8.4375 C 2.53125 -10.15625 2.832031 -11.679688 3.4375 -13.015625 C 4.050781 -14.347656 4.910156 -15.394531 6.015625 -16.15625 C 7.117188 -16.914062 8.421875 -17.296875 9.921875 -17.296875 C 11.347656 -17.296875 12.578125 -16.957031 13.609375 -16.28125 C 14.640625 -15.613281 15.429688 -14.660156 15.984375 -13.421875 C 16.535156 -12.179688 16.8125 -10.703125 16.8125 -8.984375 C 16.8125 -8.703125 16.804688 -8.429688 16.796875 -8.171875 C 16.785156 -7.921875 16.769531 -7.703125 16.75 -7.515625 Z M 9.953125 -15.078125 C 8.703125 -15.078125 7.65625 -14.628906 6.8125 -13.734375 C 5.96875 -12.847656 5.488281 -11.472656 5.375 -9.609375 L 14.203125 -9.609375 C 14.171875 -11.421875 13.773438 -12.785156 13.015625 -13.703125 C 12.253906 -14.617188 11.234375 -15.078125 9.953125 -15.078125 Z M 9.953125 -15.078125" transform="translate(21.878 37.443)"/></g></g></g><g fill="#EDDDD4"><g><g><path d="M 5.359375 -7.515625 C 5.410156 -6.203125 5.660156 -5.128906 6.109375 -4.296875 C 6.554688 -3.472656 7.148438 -2.863281 7.890625 -2.46875 C 8.640625 -2.070312 9.445312 -1.875 10.3125 -1.875 C 11.175781 -1.875 11.957031 -2.003906 12.65625 -2.265625 C 13.363281 -2.523438 14.085938 -2.90625 14.828125 -3.40625 L 16.109375 -1.625 C 15.304688 -1 14.398438 -0.507812 13.390625 -0.15625 C 12.378906 0.195312 11.34375 0.375 10.28125 0.375 C 8.632812 0.375 7.234375 0.00390625 6.078125 -0.734375 C 4.921875 -1.472656 4.039062 -2.503906 3.4375 -3.828125 C 2.832031 -5.160156 2.53125 -6.695312 2.53125 -8.4375 C 2.53125 -10.15625 2.832031 -11.679688 3.4375 -13.015625 C 4.050781 -14.347656 4.910156 -15.394531 6.015625 -16.15625 C 7.117188 -16.914062 8.421875 -17.296875 9.921875 -17.296875 C 11.347656 -17.296875 12.578125 -16.957031 13.609375 -16.28125 C 14.640625 -15.613281 15.429688 -14.660156 15.984375 -13.421875 C 16.535156 -12.179688 16.8125 -10.703125 16.8125 -8.984375 C 16.8125 -8.703125 16.804688 -8.429688 16.796875 -8.171875 C 16.785156 -7.921875 16.769531 -7.703125 16.75 -7.515625 Z M 9.953125 -15.078125 C 8.703125 -15.078125 7.65625 -14.628906 6.8125 -13.734375 C 5.96875 -12.847656 5.488281 -11.472656 5.375 -9.609375 L 14.203125 -9.609375 C 14.171875 -11.421875 13.773438 -12.785156 13.015625 -13.703125 C 12.253906 -14.617188 11.234375 -15.078125 9.953125 -15.078125 Z M 9.953125 -15.078125" transform="translate(41.178 37.443)"/></g></g></g><g fill="#EDDDD4"><g><g><path d="M 3.390625 0 L 3.390625 -2.078125 L 6.03125 -2.078125 L 6.03125 -14.859375 L 3.390625 -14.859375 L 3.390625 -16.9375 L 8.09375 -16.9375 L 8.59375 -12.9375 C 9.25 -14.332031 10.039062 -15.410156 10.96875 -16.171875 C 11.90625 -16.929688 13.140625 -17.3125 14.671875 -17.3125 C 15.140625 -17.3125 15.554688 -17.273438 15.921875 -17.203125 C 16.296875 -17.128906 16.675781 -17.039062 17.0625 -16.9375 L 16.28125 -14.53125 C 15.925781 -14.625 15.601562 -14.691406 15.3125 -14.734375 C 15.019531 -14.785156 14.6875 -14.8125 14.3125 -14.8125 C 13.019531 -14.8125 11.90625 -14.347656 10.96875 -13.421875 C 10.039062 -12.503906 9.296875 -11.113281 8.734375 -9.25 L 8.734375 -2.078125 L 12.171875 -2.078125 L 12.171875 0 Z M 14.46875 -11.21875 L 14.46875 -14.890625 L 14.734375 -16.9375 L 17.0625 -16.9375 L 16.6875 -11.21875 Z M 14.46875 -11.21875" transform="translate(60.478 37.443)"/></g></g></g><g fill="#EDDDD4"><g><g><path d="M 17.421875 -16.9375 L 9.796875 -9.3125 L 18.3125 0 L 14.75 0 L 6.421875 -9.25 L 13.921875 -16.9375 Z M 6.109375 -24.09375 L 6.109375 0 L 3.40625 0 L 3.40625 -23.765625 Z M 6.109375 -24.09375" transform="translate(79.777 37.443)"/></g></g></g><g fill="#EDDDD4"><g><g><path d="M 15.359375 -3.703125 C 15.359375 -3.023438 15.46875 -2.53125 15.6875 -2.21875 C 15.914062 -1.90625 16.269531 -1.675781 16.75 -1.53125 L 16.078125 0.375 C 15.347656 0.269531 14.707031 0.0351562 14.15625 -0.328125 C 13.613281 -0.703125 13.222656 -1.265625 12.984375 -2.015625 C 12.367188 -1.234375 11.601562 -0.640625 10.6875 -0.234375 C 9.78125 0.171875 8.773438 0.375 7.671875 0.375 C 5.972656 0.375 4.632812 -0.101562 3.65625 -1.0625 C 2.6875 -2.019531 2.203125 -3.285156 2.203125 -4.859375 C 2.203125 -6.609375 2.882812 -7.945312 4.25 -8.875 C 5.613281 -9.8125 7.582031 -10.28125 10.15625 -10.28125 L 12.640625 -10.28125 L 12.640625 -11.6875 C 12.640625 -12.914062 12.28125 -13.785156 11.5625 -14.296875 C 10.851562 -14.804688 9.867188 -15.0625 8.609375 -15.0625 C 8.046875 -15.0625 7.390625 -14.992188 6.640625 -14.859375 C 5.890625 -14.722656 5.078125 -14.5 4.203125 -14.1875 L 3.484375 -16.234375 C 4.523438 -16.617188 5.5 -16.890625 6.40625 -17.046875 C 7.320312 -17.210938 8.195312 -17.296875 9.03125 -17.296875 C 11.132812 -17.296875 12.710938 -16.800781 13.765625 -15.8125 C 14.828125 -14.832031 15.359375 -13.503906 15.359375 -11.828125 Z M 8.359375 -1.6875 C 9.203125 -1.6875 10.003906 -1.894531 10.765625 -2.3125 C 11.523438 -2.738281 12.148438 -3.328125 12.640625 -4.078125 L 12.640625 -8.4375 L 10.203125 -8.4375 C 8.335938 -8.4375 7.019531 -8.113281 6.25 -7.46875 C 5.476562 -6.832031 5.09375 -5.972656 5.09375 -4.890625 C 5.09375 -3.835938 5.363281 -3.039062 5.90625 -2.5 C 6.445312 -1.957031 7.265625 -1.6875 8.359375 -1.6875 Z M 8.359375 -1.6875" transform="translate(99.077 37.443)"/></g></g></g><g fill="#EDDDD4"><g><g><path d="M 16.6875 -0.859375 C 16.101562 -0.472656 15.394531 -0.171875 14.5625 0.046875 C 13.738281 0.265625 12.929688 0.375 12.140625 0.375 C 10.316406 0.375 8.910156 -0.101562 7.921875 -1.0625 C 6.941406 -2.019531 6.453125 -3.25 6.453125 -4.75 L 6.453125 -14.84375 L 2.5625 -14.84375 L 2.5625 -16.9375 L 6.453125 -16.9375 L 6.453125 -20.78125 L 9.15625 -21.109375 L 9.15625 -16.9375 L 15.015625 -16.9375 L 14.6875 -14.84375 L 9.15625 -14.84375 L 9.15625 -4.78125 C 9.15625 -3.832031 9.40625 -3.109375 9.90625 -2.609375 C 10.40625 -2.117188 11.234375 -1.875 12.390625 -1.875 C 13.015625 -1.875 13.59375 -1.945312 14.125 -2.09375 C 14.664062 -2.25 15.171875 -2.445312 15.640625 -2.6875 Z M 16.6875 -0.859375" transform="translate(118.377 37.443)"/></g></g></g><g fill="#EDDDD4"><g><g><path d="M 8.984375 -1.859375 C 10.285156 -1.859375 11.3125 -2.101562 12.0625 -2.59375 C 12.820312 -3.082031 13.203125 -3.734375 13.203125 -4.546875 C 13.203125 -5.066406 13.109375 -5.515625 12.921875 -5.890625 C 12.734375 -6.265625 12.347656 -6.597656 11.765625 -6.890625 C 11.191406 -7.191406 10.304688 -7.492188 9.109375 -7.796875 C 7.929688 -8.085938 6.910156 -8.421875 6.046875 -8.796875 C 5.191406 -9.179688 4.523438 -9.679688 4.046875 -10.296875 C 3.566406 -10.910156 3.328125 -11.703125 3.328125 -12.671875 C 3.328125 -13.628906 3.597656 -14.453125 4.140625 -15.140625 C 4.679688 -15.835938 5.429688 -16.367188 6.390625 -16.734375 C 7.359375 -17.109375 8.484375 -17.296875 9.765625 -17.296875 C 11.128906 -17.296875 12.316406 -17.113281 13.328125 -16.75 C 14.335938 -16.394531 15.195312 -15.953125 15.90625 -15.421875 L 14.71875 -13.59375 C 14.070312 -14.03125 13.363281 -14.390625 12.59375 -14.671875 C 11.820312 -14.960938 10.890625 -15.109375 9.796875 -15.109375 C 8.460938 -15.109375 7.515625 -14.898438 6.953125 -14.484375 C 6.398438 -14.066406 6.125 -13.535156 6.125 -12.890625 C 6.125 -12.390625 6.257812 -11.972656 6.53125 -11.640625 C 6.8125 -11.316406 7.273438 -11.023438 7.921875 -10.765625 C 8.578125 -10.503906 9.476562 -10.21875 10.625 -9.90625 C 11.738281 -9.613281 12.703125 -9.265625 13.515625 -8.859375 C 14.335938 -8.453125 14.976562 -7.914062 15.4375 -7.25 C 15.90625 -6.582031 16.140625 -5.726562 16.140625 -4.6875 C 16.140625 -3.476562 15.796875 -2.5 15.109375 -1.75 C 14.421875 -1.007812 13.53125 -0.46875 12.4375 -0.125 C 11.351562 0.207031 10.203125 0.375 8.984375 0.375 C 7.453125 0.375 6.144531 0.148438 5.0625 -0.296875 C 3.988281 -0.742188 3.085938 -1.285156 2.359375 -1.921875 L 3.90625 -3.703125 C 4.570312 -3.148438 5.335938 -2.703125 6.203125 -2.359375 C 7.066406 -2.023438 7.992188 -1.859375 8.984375 -1.859375 Z M 8.984375 -1.859375" transform="translate(156.976 37.443)"/></g></g></g><g fill="#EDDDD4"><g><g><path d="M 16.6875 -0.859375 C 16.101562 -0.472656 15.394531 -0.171875 14.5625 0.046875 C 13.738281 0.265625 12.929688 0.375 12.140625 0.375 C 10.316406 0.375 8.910156 -0.101562 7.921875 -1.0625 C 6.941406 -2.019531 6.453125 -3.25 6.453125 -4.75 L 6.453125 -14.84375 L 2.5625 -14.84375 L 2.5625 -16.9375 L 6.453125 -16.9375 L 6.453125 -20.78125 L 9.15625 -21.109375 L 9.15625 -16.9375 L 15.015625 -16.9375 L 14.6875 -14.84375 L 9.15625 -14.84375 L 9.15625 -4.78125 C 9.15625 -3.832031 9.40625 -3.109375 9.90625 -2.609375 C 10.40625 -2.117188 11.234375 -1.875 12.390625 -1.875 C 13.015625 -1.875 13.59375 -1.945312 14.125 -2.09375 C 14.664062 -2.25 15.171875 -2.445312 15.640625 -2.6875 Z M 16.6875 -0.859375" transform="translate(176.276 37.443)"/></g></g></g><g fill="#EDDDD4"><g><g><path d="M 5.9375 -16.9375 L 5.9375 -4.9375 C 5.9375 -3.820312 6.164062 -3.015625 6.625 -2.515625 C 7.082031 -2.023438 7.800781 -1.78125 8.78125 -1.78125 C 9.71875 -1.78125 10.597656 -2.046875 11.421875 -2.578125 C 12.253906 -3.109375 12.90625 -3.738281 13.375 -4.46875 L 13.375 -16.9375 L 16.0625 -16.9375 L 16.0625 0 L 13.765625 0 L 13.546875 -2.28125 C 12.878906 -1.425781 12.054688 -0.769531 11.078125 -0.3125 C 10.109375 0.144531 9.125 0.375 8.125 0.375 C 6.476562 0.375 5.25 -0.0625 4.4375 -0.9375 C 3.632812 -1.8125 3.234375 -3.035156 3.234375 -4.609375 L 3.234375 -16.9375 Z M 5.9375 -16.9375" transform="translate(195.576 37.443)"/></g></g></g><g fill="#EDDDD4"><g><g><path d="M 13.375 -24.09375 L 16.0625 -23.765625 L 16.0625 0 L 13.703125 0 L 13.453125 -2.234375 C 12.816406 -1.335938 12.085938 -0.675781 11.265625 -0.25 C 10.441406 0.164062 9.566406 0.375 8.640625 0.375 C 7.171875 0.375 5.957031 0.00390625 5 -0.734375 C 4.050781 -1.472656 3.34375 -2.503906 2.875 -3.828125 C 2.414062 -5.160156 2.1875 -6.695312 2.1875 -8.4375 C 2.1875 -10.132812 2.445312 -11.648438 2.96875 -12.984375 C 3.5 -14.316406 4.257812 -15.367188 5.25 -16.140625 C 6.238281 -16.910156 7.429688 -17.296875 8.828125 -17.296875 C 9.804688 -17.296875 10.664062 -17.125 11.40625 -16.78125 C 12.144531 -16.445312 12.800781 -15.953125 13.375 -15.296875 Z M 9.53125 -15.125 C 8.125 -15.125 7.035156 -14.570312 6.265625 -13.46875 C 5.503906 -12.363281 5.125 -10.6875 5.125 -8.4375 C 5.125 -6.976562 5.28125 -5.753906 5.59375 -4.765625 C 5.90625 -3.785156 6.363281 -3.046875 6.96875 -2.546875 C 7.570312 -2.054688 8.316406 -1.8125 9.203125 -1.8125 C 10.171875 -1.8125 10.992188 -2.082031 11.671875 -2.625 C 12.347656 -3.175781 12.914062 -3.796875 13.375 -4.484375 L 13.375 -12.953125 C 12.90625 -13.640625 12.34375 -14.171875 11.6875 -14.546875 C 11.039062 -14.929688 10.320312 -15.125 9.53125 -15.125 Z M 9.53125 -15.125" transform="translate(214.876 37.443)"/></g></g></g><g fill="#EDDDD4"><g><g><path d="M 11.8125 -16.9375 L 11.8125 -2.140625 L 16.578125 -2.140625 L 16.578125 0 L 3.875 0 L 3.875 -2.140625 L 9.109375 -2.140625 L 9.109375 -14.796875 L 4.03125 -14.796875 L 4.03125 -16.9375 Z M 9.65625 -24.875 C 10.25 -24.875 10.722656 -24.691406 11.078125 -24.328125 C 11.441406 -23.960938 11.625 -23.515625 11.625 -22.984375 C 11.625 -22.441406 11.441406 -21.984375 11.078125 -21.609375 C 10.722656 -21.242188 10.25 -21.0625 9.65625 -21.0625 C 9.082031 -21.0625 8.613281 -21.242188 8.25 -21.609375 C 7.882812 -21.984375 7.703125 -22.441406 7.703125 -22.984375 C 7.703125 -23.515625 7.882812 -23.960938 8.25 -24.328125 C 8.613281 -24.691406 9.082031 -24.875 9.65625 -24.875 Z M 9.65625 -24.875" transform="translate(234.175 37.443)"/></g></g></g><g fill="#C44536"><g><g><path d="M 21.203125 -1.21875 L 19.140625 0.921875 L 5.359375 -12.859375 L 19.140625 -26.640625 L 21.203125 -24.5 L 9.578125 -12.859375 Z M 21.203125 -1.21875" transform="translate(246.317 37.756)"/></g></g></g><g fill="#C44536"><g><g><path d="M 19.734375 -12.859375 L 5.953125 0.921875 L 3.84375 -1.21875 L 15.484375 -12.859375 L 3.84375 -24.5 L 5.953125 -26.640625 Z M 19.734375 -12.859375" transform="translate(276.404 37.756)"/></g></g></g></svg>